<?xml version="1.0" standalone="no"?><!DOCTYPE svg PUBLIC "-//W3C//DTD SVG 1.1//EN" "http://www.w3.org/Graphics/SVG/1.1/DTD/svg11.dtd"><svg t="1613799240509" class="icon" viewBox="0 0 1024 1024" version="1.1" xmlns="http://www.w3.org/2000/svg" p-id="27417" xmlns:xlink="http://www.w3.org/1999/xlink" width="200" height="200"><defs><style type="text/css"></style></defs><path d="M0 891.964C0 964.892 59.116 1024 132.036 1024H891.96C964.892 1024 1024 964.884 1024 891.964V132.04C1024 59.108 964.884 0 891.964 0H132.04C59.108 0 0 59.116 0 132.036V891.96z" fill="#563D7C" p-id="27418"></path><path d="M424.632 452.952V307.94h127.644c12.16 0 23.88 1.012 35.168 3.04 11.288 2.024 21.276 5.64 29.96 10.852 8.68 5.212 15.628 12.448 20.84 21.708 5.208 9.264 7.816 21.132 7.816 35.6 0 26.052-7.816 44.868-23.448 56.444-15.628 11.58-35.6 17.368-59.916 17.368h-138.064zM288.3 202v620h300.448c27.788 0 54.852-3.472 81.192-10.42 26.34-6.948 49.784-17.656 70.336-32.128 20.548-14.472 36.904-33.144 49.06-56.008 12.16-22.868 18.236-49.932 18.236-81.192 0-38.788-9.408-71.928-28.22-99.424-18.816-27.5-47.328-46.748-85.536-57.748 27.788-13.312 48.776-30.392 62.96-51.232 14.18-20.84 21.272-46.888 21.272-78.152 0-28.944-4.776-53.256-14.328-72.94-9.552-19.68-23.012-35.456-40.38-47.324-17.364-11.868-38.204-20.408-62.52-25.616-24.312-5.212-51.232-7.816-80.756-7.816H288.3z m136.332 514.06v-170.196h148.484c29.524 0 53.26 6.8 71.208 20.408 17.944 13.604 26.92 36.324 26.92 68.164 0 16.212-2.752 29.524-8.252 39.944-5.5 10.42-12.88 18.672-22.144 24.748-9.26 6.08-19.972 10.42-32.128 13.028-12.16 2.6-24.892 3.904-38.208 3.904h-145.88z" fill="#FFFFFF" p-id="27419"></path></svg>