<?xml version="1.0" standalone="no"?><!DOCTYPE svg PUBLIC "-//W3C//DTD SVG 1.1//EN" "http://www.w3.org/Graphics/SVG/1.1/DTD/svg11.dtd"><svg t="1613799594518" class="icon" viewBox="0 0 1024 1024" version="1.1" xmlns="http://www.w3.org/2000/svg" p-id="44639" xmlns:xlink="http://www.w3.org/1999/xlink" width="200" height="200"><defs><style type="text/css"></style></defs><path d="M861.3 606.4L512.5 875.6l-351-269.2V427.9h699.8z" fill="#FE6E0D" p-id="44640"></path><path d="M161.5 427.9L512 877.1 127.9 598.3c-5.3-3.8-9-8.9-11.1-15.3-2.1-6.3-2.1-12.6 0-18.8l44.7-136.3z" fill="#FEA400" p-id="44641"></path><path d="M365.9 427.9H658L512 877.1zM278.3 157.1L365.9 428H161.5l87.6-270.8c2.4-6.8 7.2-10.2 14.6-10.2s12.3 3.3 14.6 10.1z" fill="#E5421D" p-id="44642"></path><path d="M862.5 427.9l44.7 136.3c2.1 6.2 2.1 12.5 0 18.8-2.1 6.3-5.7 11.4-11.1 15.3L512 877.1l350.5-449.2z" fill="#FEA400" p-id="44643"></path><path d="M862.5 427.9H658l87.6-270.8c2.4-6.8 7.2-10.2 14.6-10.2 7.4 0 12.2 3.4 14.6 10.2l87.7 270.8z" fill="#E5421D" p-id="44644"></path></svg>