<?xml version="1.0" standalone="no"?><!DOCTYPE svg PUBLIC "-//W3C//DTD SVG 1.1//EN" "http://www.w3.org/Graphics/SVG/1.1/DTD/svg11.dtd"><svg t="1613799482375" class="icon" viewBox="0 0 1024 1024" version="1.1" xmlns="http://www.w3.org/2000/svg" p-id="36148" xmlns:xlink="http://www.w3.org/1999/xlink" width="200" height="200"><defs><style type="text/css"></style></defs><path d="M896 0H128a128 128 0 0 0-128 128v768a128 128 0 0 0 128 128h768c70.656 0 128-57.344 128-128V128a128 128 0 0 0-128-128zM445.44 775.68c0 33.92-27.52 61.44-61.44 61.44H194.56c-33.92 0-61.44-27.552-61.44-61.44V194.56c0-33.92 27.52-61.44 61.44-61.44H384c33.92 0 61.44 27.52 61.44 61.44v581.12z m445.44-256c0 33.888-27.52 61.44-61.44 61.44H640c-33.92 0-61.44-27.552-61.44-61.44V194.56c0-33.92 27.552-61.44 61.44-61.44h189.44c33.92 0 61.44 27.52 61.44 61.44v325.12z" fill="#0079BF" p-id="36149"></path></svg>